<svg width="136" height="56" viewBox="0 0 136 56" fill="none" xmlns="http://www.w3.org/2000/svg">
<g clip-path="url(#clip0_85_4892)">
<path d="M0 24.3355V29.26C1.70283 29.2588 3.38919 29.5895 4.96257 30.2331C6.53596 30.8766 7.96549 31.8205 9.16937 33.0106C10.373 34.2003 11.3275 35.6128 11.9783 37.1672C12.6292 38.7217 12.9636 40.3877 12.9625 42.07H17.9421C17.9376 37.3685 16.0459 32.8608 12.6822 29.536C9.3185 26.2112 4.75748 24.3409 0 24.3355H0Z" fill="#5AA8B9"/>
<path d="M24.9028 15.47H17.0112C21.0034 17.9701 24.3861 21.3126 26.9166 25.2574V17.4587C26.9162 16.9311 26.7039 16.4253 26.3262 16.0524C25.9486 15.6795 25.4366 15.47 24.9028 15.47Z" fill="#5AA8B9"/>
<path d="M4.95833 15.47H0V19.9038C5.94699 19.9099 11.6487 22.2472 15.8539 26.4028C20.0591 30.5585 22.4244 36.193 22.4308 42.07H26.9167V37.17C25.9024 31.7846 23.2617 26.8289 19.3421 22.9555C15.4225 19.082 10.4079 16.4723 4.95833 15.47Z" fill="#5AA8B9"/>
<path d="M39.122 18.3981H35.9614V34.1411H39.122V18.3981Z" fill="#5AA8B9"/>
<path d="M50.7427 25.2189C50.2166 24.7462 49.6007 24.3815 48.9308 24.1458C47.4918 23.6465 45.9236 23.6465 44.4846 24.1458C43.8144 24.3813 43.1983 24.7461 42.672 25.2189C42.1558 25.6892 41.7435 26.2597 41.4607 26.8947C41.1685 27.5875 41.0181 28.3306 41.0181 29.0812C41.0181 29.8317 41.1685 30.5748 41.4607 31.2676C41.7424 31.9045 42.1549 32.4765 42.672 32.9476C43.1974 33.4208 43.8132 33.7854 44.4832 34.02C45.922 34.5203 47.4906 34.5203 48.9294 34.02C49.5996 33.7854 50.2157 33.4208 50.7413 32.9476C51.2582 32.4764 51.6707 31.9043 51.9526 31.2676C52.2448 30.5748 52.3953 29.8317 52.3953 29.0812C52.3953 28.3306 52.2448 27.5875 51.9526 26.8947C51.6701 26.2599 51.2583 25.6894 50.7427 25.2189ZM48.5724 30.9351C48.0606 31.3907 47.3962 31.6428 46.7074 31.6428C46.0185 31.6428 45.3541 31.3907 44.8423 30.9351C44.4122 30.4103 44.1774 29.7555 44.1774 29.0801C44.1774 28.4048 44.4122 27.7499 44.8423 27.2251C45.3541 26.7695 46.0185 26.5174 46.7074 26.5174C47.3962 26.5174 48.0606 26.7695 48.5724 27.2251C49.0026 27.7499 49.2373 28.4048 49.2373 29.0801C49.2373 29.7555 49.0026 30.4103 48.5724 30.9351Z" fill="#5AA8B9"/>
<path d="M62.0896 25.354H62.05C61.9038 25.1512 61.7341 24.9661 61.5442 24.8024C61.3143 24.6013 61.0596 24.4297 60.7863 24.2914C60.0955 23.9411 59.3286 23.7626 58.5522 23.7713C57.8718 23.7595 57.199 23.9134 56.593 24.2193C56.0283 24.5082 55.5297 24.9088 55.1281 25.396C54.7186 25.8982 54.4045 26.4695 54.2009 27.0823C53.9845 27.7136 53.8742 28.3757 53.8744 29.0423C53.8664 29.7578 53.9878 30.469 54.2328 31.1423C54.4548 31.7568 54.8009 32.3202 55.25 32.7985C55.6974 33.2665 56.2404 33.6352 56.843 33.88C57.4982 34.1439 58.2004 34.2748 58.9078 34.265C59.4311 34.2561 59.9484 34.1539 60.435 33.9633C60.9806 33.7588 61.4533 33.4002 61.7943 32.9322H61.8368V33.9122C61.8486 34.2391 61.7941 34.565 61.6765 34.8707C61.5588 35.1764 61.3804 35.4558 61.1518 35.6923C60.8617 35.9459 60.5226 36.1387 60.1549 36.2591C59.7872 36.3794 59.3986 36.4247 59.0126 36.3923C58.4007 36.3991 57.7942 36.2784 57.2326 36.0381C56.6738 35.7913 56.1525 35.4691 55.6835 35.0805L53.9346 37.66C54.6494 38.229 55.485 38.6312 56.3791 38.8367C57.2637 39.0377 58.1686 39.1389 59.0764 39.1384C61.0711 39.1384 62.5564 38.6421 63.5325 37.6495C64.5086 36.6569 64.9969 35.2028 64.9974 33.2871V24.0212H62.0932L62.0896 25.354ZM61.8998 29.9663C61.7751 30.2626 61.5924 30.5317 61.3622 30.758C61.1278 30.9888 60.853 31.1757 60.5511 31.3096C60.2377 31.4471 59.8985 31.5182 59.5556 31.5182C59.2126 31.5182 58.8735 31.4471 58.56 31.3096C58.2622 31.1738 57.991 30.9871 57.7589 30.758C57.5277 30.5297 57.3442 30.2587 57.2191 29.9603C57.0939 29.662 57.0295 29.3422 57.0295 29.0192C57.0295 28.6962 57.0939 28.3764 57.2191 28.0781C57.3442 27.7797 57.5277 27.5086 57.7589 27.2804C57.9911 27.0513 58.2623 26.8644 58.56 26.7281C58.8736 26.591 59.2127 26.5202 59.5556 26.5202C59.8985 26.5202 60.2376 26.591 60.5511 26.7281C60.8529 26.8625 61.1276 27.0496 61.3622 27.2804C61.7099 27.6258 61.9465 28.065 62.0421 28.543C62.1378 29.0209 62.0883 29.5161 61.8998 29.9663Z" fill="#5AA8B9"/>
<path d="M76.8712 25.2189C76.345 24.7462 75.7291 24.3815 75.0592 24.1458C73.6202 23.6465 72.052 23.6465 70.613 24.1458C69.9429 24.3813 69.3267 24.7461 68.8004 25.2189C68.2842 25.6892 67.8719 26.2597 67.5892 26.8947C67.2969 27.5875 67.1465 28.3306 67.1465 29.0812C67.1465 29.8317 67.2969 30.5748 67.5892 31.2676C67.8708 31.9045 68.2833 32.4765 68.8004 32.9476C69.3262 33.4209 69.9425 33.7856 70.613 34.02C72.0519 34.5203 73.6204 34.5203 75.0592 34.02C75.7295 33.7854 76.3455 33.4208 76.8712 32.9476C77.3883 32.4765 77.8007 31.9045 78.0824 31.2676C78.3746 30.5748 78.5251 29.8317 78.5251 29.0812C78.5251 28.3306 78.3746 27.5875 78.0824 26.8947C77.7997 26.2597 77.3873 25.6892 76.8712 25.2189ZM74.7008 30.9351C74.189 31.3907 73.5246 31.6428 72.8358 31.6428C72.147 31.6428 71.4825 31.3907 70.9707 30.9351C70.5406 30.4103 70.3059 29.7555 70.3059 29.0801C70.3059 28.4048 70.5406 27.7499 70.9707 27.2251C71.4825 26.7695 72.147 26.5174 72.8358 26.5174C73.5246 26.5174 74.189 26.7695 74.7008 27.2251C75.131 27.7499 75.3657 28.4048 75.3657 29.0801C75.3657 29.7555 75.131 30.4103 74.7008 30.9351Z" fill="#5AA8B9"/>
<path d="M82.718 24.0912H81.0229V34.1411H82.718V24.0912Z" fill="#5AA8B9"/>
<path d="M81.8708 18.9378C81.7064 18.9347 81.5432 18.9656 81.3916 19.0284C81.24 19.0912 81.1033 19.1845 80.9903 19.3025C80.818 19.4742 80.7009 19.6925 80.6539 19.9299C80.6069 20.1672 80.6321 20.413 80.7262 20.6363C80.8203 20.8595 80.9792 21.0502 81.1828 21.1844C81.3865 21.3186 81.6257 21.3902 81.8704 21.3902C82.1152 21.3902 82.3544 21.3186 82.5581 21.1844C82.7617 21.0502 82.9206 20.8595 83.0147 20.6363C83.1088 20.413 83.134 20.1672 83.087 19.9299C83.0399 19.6925 82.9229 19.4742 82.7505 19.3025C82.6377 19.1845 82.5012 19.0911 82.3497 19.0283C82.1982 18.9655 82.0351 18.9347 81.8708 18.9378Z" fill="#5AA8B9"/>
<path d="M95.2557 25.34C94.7789 24.8589 94.2054 24.4819 93.572 24.2333C92.877 23.9625 92.1353 23.8277 91.3882 23.8364C90.6845 23.8284 89.9886 23.983 89.356 24.2879C88.733 24.5941 88.1815 25.0254 87.7368 25.5542H87.6915V24.0912H85.9985V39.0376H87.6915V32.3596H87.7347C88.0945 32.972 88.6189 33.4741 89.2498 33.81C89.9822 34.2152 90.8111 34.4192 91.6503 34.4008C92.3374 34.4051 93.018 34.2697 93.65 34.0032C94.2601 33.7474 94.8109 33.371 95.2685 32.8972C95.7331 32.4129 96.0985 31.8443 96.3445 31.2228C96.8658 29.8668 96.8658 28.369 96.3445 27.013C96.0964 26.39 95.7264 25.8215 95.2557 25.34ZM94.6579 30.59C94.4999 31.0276 94.2528 31.4285 93.9317 31.7679C93.6107 32.1073 93.2226 32.378 92.7915 32.5633C91.8382 32.9491 90.7697 32.9491 89.8165 32.5633C89.3847 32.378 88.9961 32.1071 88.6747 31.7673C88.3532 31.4275 88.1059 31.0261 87.9479 30.5879C87.6151 29.6355 87.6151 28.6003 87.9479 27.6479C88.1059 27.2097 88.3532 26.8083 88.6747 26.4685C88.9961 26.1287 89.3847 25.8578 89.8165 25.6725C90.7697 25.2867 91.8382 25.2867 92.7915 25.6725C93.2232 25.8578 93.6118 26.1287 93.9333 26.4685C94.2547 26.8083 94.5021 27.2097 94.66 27.6479C94.9928 28.6003 94.9928 29.6355 94.66 30.5879L94.6579 30.59Z" fill="#5AA8B9"/>
<path d="M105.274 29.12C104.952 28.882 104.593 28.6971 104.211 28.5726C103.792 28.4328 103.364 28.3215 102.929 28.2394C102.603 28.1844 102.281 28.1129 101.962 28.0252C101.679 27.949 101.402 27.8483 101.136 27.7242C100.924 27.6288 100.731 27.4938 100.57 27.3266C100.432 27.1771 100.359 26.9811 100.364 26.7792C100.36 26.5614 100.425 26.3478 100.548 26.1674C100.67 25.9892 100.83 25.8391 101.015 25.7271C101.214 25.6083 101.431 25.5214 101.657 25.4695C101.889 25.4128 102.127 25.3839 102.365 25.3834C102.82 25.3694 103.269 25.4851 103.658 25.7166C104.01 25.9353 104.304 26.2332 104.517 26.586L105.929 25.6627C105.616 25.0524 105.108 24.5615 104.483 24.2662C103.854 23.9774 103.168 23.8308 102.474 23.8371C102.003 23.836 101.535 23.9011 101.083 24.0303C100.65 24.1524 100.239 24.3414 99.8657 24.5903C99.5085 24.8286 99.2112 25.1444 98.9965 25.5136C98.7742 25.9068 98.6618 26.3513 98.6707 26.8016C98.653 27.2424 98.7542 27.6799 98.964 28.0693C99.1553 28.395 99.4224 28.6709 99.7431 28.8743C100.097 29.095 100.481 29.2649 100.884 29.379C101.318 29.5078 101.775 29.6224 102.253 29.7227C102.529 29.7801 102.797 29.8445 103.057 29.9159C103.301 29.9806 103.535 30.0782 103.752 30.2057C103.944 30.318 104.11 30.4679 104.241 30.646C104.372 30.8433 104.436 31.0762 104.426 31.3117C104.434 31.5592 104.366 31.8032 104.23 32.0117C104.095 32.2093 103.917 32.3744 103.709 32.4947C103.484 32.6274 103.238 32.7221 102.981 32.7747C102.72 32.8313 102.454 32.8601 102.188 32.8608C101.66 32.881 101.136 32.7544 100.677 32.4954C100.255 32.2299 99.8839 31.893 99.5802 31.5L98.2344 32.5311C98.651 33.1705 99.2424 33.6802 99.94 34.0011C100.655 34.2816 101.42 34.4168 102.189 34.3987C102.69 34.3991 103.189 34.3416 103.676 34.2272C104.14 34.1213 104.581 33.936 104.981 33.6798C105.362 33.4298 105.677 33.0939 105.901 32.6998C106.145 32.2525 106.265 31.75 106.25 31.2424C106.264 30.806 106.174 30.3725 105.989 29.9761C105.821 29.6401 105.576 29.3471 105.274 29.12Z" fill="#5AA8B9"/>
<path d="M117.486 31.7576V24.0912H115.791V28.9912C115.796 29.5195 115.734 30.0463 115.606 30.5592C115.497 30.9989 115.305 31.4141 115.039 31.7828C114.787 32.1255 114.45 32.399 114.061 32.5773C113.613 32.7737 113.127 32.8693 112.638 32.8573C112.307 32.8837 111.974 32.8312 111.668 32.7042C111.361 32.5771 111.091 32.3793 110.878 32.1272C110.471 31.5417 110.271 30.8394 110.311 30.1301V24.0912H108.616V30.2974C108.611 30.86 108.688 31.4204 108.844 31.9613C108.98 32.4409 109.222 32.8847 109.552 33.2612C109.883 33.6292 110.295 33.9167 110.757 34.1012C111.307 34.3134 111.894 34.4157 112.484 34.4022C112.881 34.4054 113.277 34.3509 113.658 34.2405C114.002 34.1415 114.331 33.9972 114.635 33.8114C114.913 33.6426 115.165 33.4367 115.385 33.1996C115.583 32.9886 115.748 32.7496 115.874 32.4905H115.917C115.917 32.7775 115.925 33.0575 115.939 33.3305C115.954 33.6035 115.961 33.8756 115.961 34.1467H117.569C117.569 33.8168 117.555 33.4516 117.525 33.0512C117.496 32.6508 117.483 32.2196 117.486 31.7576Z" fill="#5AA8B9"/>
<path d="M135.805 26.2927C135.691 25.8064 135.468 25.3517 135.152 24.9627C134.833 24.5863 134.422 24.2971 133.957 24.1227C133.372 23.9141 132.753 23.8158 132.132 23.8329C131.457 23.8038 130.79 23.9799 130.219 24.3376C129.691 24.7123 129.247 25.1914 128.916 25.7446C128.829 25.5724 128.717 25.3755 128.579 25.1538C128.425 24.9145 128.23 24.7036 128.003 24.5308C127.724 24.3211 127.413 24.1557 127.082 24.0408C126.638 23.8931 126.17 23.8239 125.702 23.8364C125.305 23.8332 124.909 23.8877 124.529 23.9981C124.185 24.0971 123.855 24.2414 123.55 24.4272C123.273 24.5962 123.021 24.802 122.801 25.039C122.603 25.25 122.438 25.489 122.312 25.7481H122.268C122.268 25.4611 122.261 25.1825 122.247 24.9081C122.233 24.6337 122.225 24.3642 122.225 24.0919H120.617C120.617 24.4218 120.632 24.787 120.66 25.1874C120.689 25.5878 120.704 26.0174 120.704 26.4761V34.1418H122.4V29.246C122.395 28.7175 122.457 28.1904 122.585 27.6773C122.693 27.2375 122.885 26.8221 123.152 26.4537C123.404 26.1108 123.74 25.8374 124.129 25.6592C124.577 25.4627 125.063 25.367 125.553 25.3792C125.843 25.3547 126.134 25.4066 126.398 25.5295C126.661 25.6525 126.887 25.8421 127.052 26.0792C127.416 26.8157 127.573 27.6351 127.509 28.4522V34.1432H129.2V28.343C129.195 27.9297 129.265 27.5188 129.407 27.1299C129.532 26.7852 129.725 26.468 129.974 26.1961C130.208 25.9416 130.493 25.737 130.81 25.5948C131.131 25.4513 131.479 25.378 131.832 25.3799C132.25 25.3649 132.667 25.4456 133.048 25.6158C133.349 25.7595 133.61 25.9736 133.808 26.2395C133.999 26.5028 134.133 26.8024 134.2 27.1194C134.273 27.4511 134.309 27.7895 134.309 28.1288V34.1418H136V28.0427C136.006 27.4537 135.941 26.8662 135.805 26.2927Z" fill="#5AA8B9"/>
</g>
<defs>
<clipPath id="clip0_85_4892">
<rect width="136" height="56" fill="white"/>
</clipPath>
</defs>
</svg>
