<svg width="32" height="32" viewBox="0 0 32 32" fill="none" xmlns="http://www.w3.org/2000/svg">
<g clip-path="url(#clip0_85_4961)">
<path d="M25.3267 24C23.4894 24 21.9961 22.5053 21.9961 20.6667C21.9961 18.828 23.4907 17.3333 25.3267 17.3333C27.1627 17.3333 28.6574 18.828 28.6574 20.6667C28.6574 22.5053 27.1627 24 25.3267 24ZM30.6561 32H19.9961C19.5841 32 19.1961 31.8093 18.9427 31.484C18.6907 31.1573 18.6014 30.7333 18.7041 30.3347C19.4507 27.4373 22.2347 25.3347 25.3254 25.3347C28.4161 25.3347 31.1987 27.4373 31.9467 30.3347C32.0494 30.7333 31.9614 31.1587 31.7081 31.484C31.4561 31.8093 31.0681 32 30.6547 32H30.6561ZM16.1241 29.668C16.7361 27.2907 18.3321 25.3173 20.3987 24.0733C19.7267 23.104 19.3281 21.932 19.3281 20.6667C19.3281 18.9 20.1094 17.3253 21.3281 16.2267V6.66267C21.3281 2.98267 18.3454 0 14.6654 0H6.67074C2.99341 0 0.0107422 2.98267 0.0107422 6.66267V25.3333C0.0107422 29.0147 2.99608 32 6.67741 32H14.6641C15.1921 32 15.7001 31.9227 16.1934 31.8067C15.9867 31.1147 15.9414 30.3773 16.1241 29.668ZM8.00408 25.3333H6.67208C5.93608 25.3333 5.34008 24.736 5.34008 24C5.34008 23.264 5.93608 22.6667 6.67208 22.6667H8.00408C8.74008 22.6667 9.33608 23.264 9.33608 24C9.33608 24.736 8.74008 25.3333 8.00408 25.3333ZM8.00408 20H6.67208C5.93608 20 5.34008 19.4027 5.34008 18.6667C5.34008 17.9307 5.93608 17.3333 6.67208 17.3333H8.00408C8.74008 17.3333 9.33608 17.9307 9.33608 18.6667C9.33608 19.4027 8.74008 20 8.00408 20ZM10.6694 13.3333C9.93341 13.3333 9.33741 12.736 9.33741 12V10.6667H8.00541C7.26941 10.6667 6.67341 10.0693 6.67341 9.33333C6.67341 8.59733 7.26941 8 8.00541 8H9.33741V6.66667C9.33741 5.93067 9.93341 5.33333 10.6694 5.33333C11.4054 5.33333 12.0014 5.93067 12.0014 6.66667V8H13.3334C14.0694 8 14.6654 8.59733 14.6654 9.33333C14.6654 10.0693 14.0694 10.6667 13.3334 10.6667H12.0014V12C12.0014 12.736 11.4054 13.3333 10.6694 13.3333ZM14.6667 25.3333H13.3347C12.5987 25.3333 12.0027 24.736 12.0027 24C12.0027 23.264 12.5987 22.6667 13.3347 22.6667H14.6667C15.4027 22.6667 15.9987 23.264 15.9987 24C15.9987 24.736 15.4027 25.3333 14.6667 25.3333ZM14.6667 20H13.3347C12.5987 20 12.0027 19.4027 12.0027 18.6667C12.0027 17.9307 12.5987 17.3333 13.3347 17.3333H14.6667C15.4027 17.3333 15.9987 17.9307 15.9987 18.6667C15.9987 19.4027 15.4027 20 14.6667 20Z" fill="#5AA8B9"/>
</g>
<defs>
<clipPath id="clip0_85_4961">
<rect width="32" height="32" fill="white"/>
</clipPath>
</defs>
</svg>
