<svg width="32" height="32" viewBox="0 0 32 32" fill="none" xmlns="http://www.w3.org/2000/svg">
<g clip-path="url(#clip0_85_4949)">
<path d="M12.6668 3.33333C12.6668 1.492 14.1588 0 16.0001 0C17.8414 0 19.3334 1.492 19.3334 3.33333C19.3334 5.17467 17.8414 6.66667 16.0001 6.66667C14.1588 6.66667 12.6668 5.17467 12.6668 3.33333ZM11.6001 15.4227C10.2441 14.192 8.04278 14.4613 7.05745 16.1333C6.41745 17.22 6.61611 18.6107 7.42011 19.5813L11.7441 23.948L9.87211 25.82L5.28945 21.1907C3.51745 19.052 3.58945 15.888 5.45611 13.832C5.65211 13.616 6.66545 12.7947 6.66545 12.7947V7.52267C6.66545 5.77867 5.41078 4.19067 3.67611 4.016C1.68145 3.816 -0.0012207 5.37733 -0.0012207 7.332V23.852C-0.0012207 25.1827 0.496113 26.4667 1.39478 27.4493L5.55078 31.9987H18.6654V23.6093C18.6654 22.4813 18.1894 21.4067 17.3548 20.648L11.5988 15.4213L11.6001 15.4227ZM24.5801 19.5827L21.2641 22.9587C21.1014 21.3253 20.3721 19.788 19.1481 18.676L17.9828 17.6173L20.4001 15.4227C21.7561 14.192 23.9574 14.4613 24.9428 16.1333C25.5828 17.22 25.3841 18.6107 24.5801 19.5813V19.5827ZM32.0001 7.33333V23.8533C32.0001 25.184 31.5028 26.468 30.6041 27.4507L26.4481 32H21.3334V26.6413L26.7108 21.1907C28.4828 19.052 28.4108 15.888 26.5441 13.832C26.3481 13.616 25.3348 12.7947 25.3348 12.7947V7.33333C25.3348 5.492 26.8268 4 28.6681 4C30.5094 4 32.0001 5.492 32.0001 7.33333ZM13.3921 13.4493L16.0001 15.816L18.6094 13.448C19.3868 12.7413 20.3294 12.276 21.3334 12.0867V11.3333C21.3334 9.496 19.8388 8 18.0001 8H14.0001C12.1614 8 10.6668 9.496 10.6668 11.3333V12.088C11.6708 12.2787 12.6148 12.744 13.3921 13.4507V13.4493Z" fill="#5AA8B9"/>
</g>
<defs>
<clipPath id="clip0_85_4949">
<rect width="32" height="32" fill="white"/>
</clipPath>
</defs>
</svg>
