<svg width="32" height="32" viewBox="0 0 32 32" fill="none" xmlns="http://www.w3.org/2000/svg">
<g clip-path="url(#clip0_85_4957)">
<path d="M32 5.33334V8.00001H26.6253L22.2827 13.2107L19.0613 5.47868L17.38 8.00001H8V5.33334H15.9533L19.6053 -0.145325L23.0507 8.12268L25.3747 5.33334H32ZM7.33333 18.6667C9.17467 18.6667 10.6667 17.1747 10.6667 15.3333C10.6667 13.492 9.17467 12 7.33333 12C5.492 12 4 13.492 4 15.3333C4 17.1747 5.492 18.6667 7.33333 18.6667ZM2.66667 5.33334H0V32H2.66667V28H29.3333V32H32V21.3333H2.66667V5.33334ZM28 10.6667H27.8733L23.428 16H20.5547L18.332 10.6667H15.9987C13.7893 10.6667 11.9987 12.4573 11.9987 14.6667V18.6667H31.9987V14.6667C31.9987 12.4573 30.2093 10.6667 28 10.6667Z" fill="#5AA8B9"/>
</g>
<defs>
<clipPath id="clip0_85_4957">
<rect width="32" height="32" fill="white"/>
</clipPath>
</defs>
</svg>
