<svg width="32" height="32" viewBox="0 0 32 32" fill="none" xmlns="http://www.w3.org/2000/svg">
<g clip-path="url(#clip0_85_4953)">
<path d="M16.0281 16C11.6161 16 8.02808 12.412 8.02808 8C8.02808 3.588 11.6174 0 16.0281 0C20.4387 0 24.0281 3.588 24.0281 8C24.0281 12.412 20.4401 16 16.0281 16ZM18.6667 24.2453V18.6667H11.9721V24.3693C12.7654 24.8307 13.3054 25.6813 13.3054 26.6667C13.3054 28.14 12.1121 29.3333 10.6387 29.3333C9.16541 29.3333 7.97208 28.14 7.97208 26.6667C7.97208 25.6827 8.51208 24.832 9.30542 24.3693V18.6693C5.64275 18.6853 2.66675 21.6667 2.66675 25.3333V32H16.0001V28C16.0001 26.264 17.1187 24.7973 18.6667 24.2453ZM22.6667 18.6667H21.3334V24.2453C22.8814 24.7973 24.0001 26.264 24.0001 28V32H29.3334V25.3333C29.3334 21.6573 26.3427 18.6667 22.6667 18.6667ZM20.0001 26.6667C19.2641 26.6667 18.6667 27.264 18.6667 28V32H21.3334V28C21.3334 27.264 20.7361 26.6667 20.0001 26.6667Z" fill="#5AA8B9"/>
</g>
<defs>
<clipPath id="clip0_85_4953">
<rect width="32" height="32" fill="white"/>
</clipPath>
</defs>
</svg>
